<svg xmlns="http://www.w3.org/2000/svg" viewBox="0 0 2035.16 1019.574">
  <defs>
    <style>
      .cls-1 {
        fill: #b7e8e8;
      }

      .cls-2 {
        fill: #36b1bf;
      }
    </style>
  </defs>
  <g id="Group_1" data-name="Group 1" transform="translate(44 -241)">
    <path id="Path_4" data-name="Path 4" class="cls-1" d="M0,917.5l176.2-82.75s109.921-95.241,198.828-113.977,158.416,4.684,197.212,35.91S784,940.918,784,940.918l276.42-23.42S959.061,695.9,1188.775,631.776s515.557,6.245,554.352,0,56.75-141.9-225.917-88.805S1692.131,481,1650.1,651.184s378.735-131.315,244.423-253.606,37.179-60.892,69.509-93.679,3.233,54.68,0-15.58,33.98,59.206,25.9-9.492,45.228,835.4,45.228,835.4L436.452,1148.574Z" transform="translate(-44 112)"/>
    <path id="Path_1" data-name="Path 1" class="cls-2" d="M5.9,836.291S119.471,708.7,352.918,703.094,977.546,914.808,916.03,747.96s494.318-114.98,475.334-228.888,244.9-79.736,311.349,24.68,292.221-137.9,161.3-283.717,63.094-107.96,63.094-107.96l26.815-92.537v961.828L-14.6,1028.376Z" transform="translate(-9.28 181.462)"/>
  </g>
</svg>
